<svg width="24" height="19" viewBox="0 0 24 19" fill="none" xmlns="http://www.w3.org/2000/svg">
<path d="M2.28571 0C1.02933 0 0 1.15354 0 2.56158V16.0099C0 17.4179 1.02933 18.5714 2.28571 18.5714H21.7143C22.9707 18.5714 24 17.4179 24 16.0099V2.56158C24 1.15354 22.9707 0 21.7143 0H2.28571ZM2.28571 1.28079H21.7143C21.8822 1.28079 22.0365 1.32158 22.1786 1.39088L12.8125 10.8267C12.2926 11.3507 11.6887 11.3507 11.1696 10.8267L1.82143 1.39088C1.96347 1.32158 2.11779 1.28079 2.28571 1.28079ZM1.15179 2.4415L10.4018 11.7772C11.3088 12.6931 12.6731 12.6918 13.5804 11.7772L22.8482 2.4415C22.8514 2.48178 22.8571 2.52014 22.8571 2.56158V16.0099C22.8571 16.7305 22.3573 17.2906 21.7143 17.2906H2.2857C1.64269 17.2906 1.14284 16.7305 1.14284 16.0099V2.56158C1.14284 2.52014 1.14853 2.48178 1.15176 2.4415H1.15179Z" fill="black"/>
</svg>
