<?xml version="1.0" encoding="utf-8"?>
<!-- Generator: Adobe Illustrator 22.0.1, SVG Export Plug-In . SVG Version: 6.00 Build 0)  -->
<svg version="1.1" xmlns="http://www.w3.org/2000/svg" xmlns:xlink="http://www.w3.org/1999/xlink" x="0px" y="0px"
	 viewBox="0 0 500 300" style="enable-background:new 0 0 500 300;" xml:space="preserve">
<style type="text/css">
	.st0{fill:#F9EBAA;}
	.st1{fill:#F9E48A;}
	.st2{fill:#4D4D4D;}
	.st3{fill:#666666;}
	.st4{opacity:0.13;}
	.st5{fill:#F9F9F9;}
	.st6{fill:#ECE0D8;stroke:#FFFFFF;stroke-width:3;stroke-miterlimit:10;}
	.st7{fill:url(#SVGID_1_);stroke:#FFFFFF;stroke-miterlimit:10;}
	.st8{fill:url(#SVGID_2_);stroke:#FFFFFF;stroke-miterlimit:10;}
	.st9{fill:url(#SVGID_3_);stroke:#F3E3D1;stroke-miterlimit:10;}
	.st10{fill:url(#SVGID_4_);stroke:#F3E3D1;stroke-miterlimit:10;}
	.st11{fill:url(#SVGID_5_);stroke:#F3E3D1;stroke-miterlimit:10;}
	.st12{fill:url(#SVGID_6_);stroke:#F3E3D1;stroke-miterlimit:10;}
	.st13{fill:url(#SVGID_7_);stroke:#F3E3D1;stroke-miterlimit:10;}
	.st14{fill:url(#SVGID_8_);stroke:#FFFFFF;stroke-miterlimit:10;}
	.st15{fill:url(#SVGID_9_);stroke:#FFFFFF;stroke-miterlimit:10;}
	.st16{fill:url(#SVGID_10_);stroke:#FFFFFF;stroke-miterlimit:10;}
	.st17{fill:url(#SVGID_11_);stroke:#FFFFFF;stroke-miterlimit:10;}
	.st18{fill:#A18DA8;stroke:#FFFFFF;stroke-width:3;stroke-miterlimit:10;}
	.st19{fill:#FFFFFF;}
</style>
<g id="Layer_2">
</g>
<g id="Layer_6">
</g>
<g id="Layer_7">
	<g>
		<g>
			<path class="st0" d="M377.4,68.6c0,2.1-0.2,4.1-0.7,6h0.1l-0.2,0.4c-0.8,2.2-1.8,4.7-3.1,7.4c-1.6,3.1-3.2,5.8-4.7,7.9
				c-2.8,3.9-5.7,7.9-8.5,11.8h-10.7h0V41.5C364.9,41.5,377.4,53.6,377.4,68.6z"/>
			<path class="st1" d="M321.8,68.6c0-15,12.5-27.1,27.8-27.1v60.6h-10.7c-2.9-4.2-5.8-8.4-8.7-12.7c-1.4-1.8-3.1-4.1-4.6-7
				c-1.4-2.8-2.4-5.4-3.1-7.5l-0.1-0.2h0.1C322,72.7,321.8,70.7,321.8,68.6z"/>
		</g>
		<g>
			<path class="st2" d="M340.6,117.7c-0.2,0-0.4,0-0.6-0.1v1.7c0.2-0.1,0.4-0.1,0.6-0.1h18.1c0.2,0,0.4,0,0.6,0.1v-1.7
				c-0.2,0.1-0.4,0.1-0.6,0.1H340.6z"/>
			<path class="st2" d="M358.7,109.7c0.2,0,0.4,0,0.6,0.1v-1c0-0.2,0-0.4-0.1-0.7c-0.2,0.1-0.3,0.1-0.5,0.1h-18.1
				c-0.2,0-0.4,0-0.5-0.1c0,0.2-0.1,0.4-0.1,0.7v1c0.2-0.1,0.4-0.1,0.6-0.1H358.7z"/>
			<path class="st2" d="M358.7,113.1h-18.1c-0.2,0-0.4,0-0.6-0.1v1.3c0.2-0.1,0.4-0.1,0.6-0.1h18.1c0.2,0,0.4,0,0.6,0.1V113
				C359.1,113.1,358.9,113.1,358.7,113.1z"/>
			<path class="st2" d="M340.6,122.6c-0.2,0-0.3,0-0.5-0.1c0.3,0.9,1,1.6,1.9,1.6h15.2c0.9,0,1.6-0.7,1.9-1.6
				c-0.2,0-0.3,0.1-0.5,0.1H340.6z"/>
			<path class="st3" d="M358.7,108.3c0.2,0,0.4,0,0.5-0.1c0.7-0.2,1.1-0.9,1.1-1.6c0-1-0.7-1.7-1.7-1.7h-18.1
				c-0.9,0-1.7,0.8-1.7,1.7c0,0.8,0.5,1.4,1.1,1.6c0.2,0.1,0.3,0.1,0.5,0.1H358.7z"/>
			<path class="st3" d="M358.7,113.1c0.2,0,0.4,0,0.6-0.1c0.6-0.3,1-0.9,1-1.6c0-0.7-0.4-1.4-1-1.6c-0.2-0.1-0.4-0.1-0.6-0.1h-18.1
				c-0.2,0-0.4,0-0.6,0.1c-0.6,0.3-1,0.9-1,1.6c0,0.7,0.4,1.4,1,1.6c0.2,0.1,0.4,0.1,0.6,0.1H358.7z"/>
			<path class="st3" d="M340.6,114.2c-0.2,0-0.4,0-0.6,0.1c-0.6,0.3-1,0.9-1,1.6c0,0.7,0.4,1.4,1,1.6c0.2,0.1,0.4,0.1,0.6,0.1h18.1
				c0.2,0,0.4,0,0.6-0.1c0.6-0.3,1-0.9,1-1.6c0-0.7-0.4-1.4-1-1.6c-0.2-0.1-0.4-0.1-0.6-0.1H340.6z"/>
			<path class="st3" d="M340.6,119.1c-0.2,0-0.4,0-0.6,0.1c-0.6,0.3-1,0.9-1,1.6c0,0.8,0.5,1.4,1.2,1.7c0.2,0,0.3,0.1,0.5,0.1h18.1
				c0.2,0,0.3,0,0.5-0.1c0.7-0.2,1.2-0.9,1.2-1.7c0-0.7-0.4-1.4-1-1.6c-0.2-0.1-0.4-0.1-0.6-0.1H340.6z"/>
		</g>
		<g class="st4">
			<path d="M340.1,117.5v1.7c0.2-0.1,0.4-0.1,0.7-0.1h8.9v-1.4h-8.9C340.5,117.7,340.3,117.6,340.1,117.5z"/>
			<path d="M340.2,108.2c-0.1,0.2-0.1,0.4-0.1,0.7v1c0.2-0.1,0.4-0.1,0.7-0.1h8.9v-1.4h-8.9C340.6,108.3,340.4,108.2,340.2,108.2z"
				/>
			<path d="M340.1,113v1.3c0.2-0.1,0.4-0.1,0.7-0.1h8.9v-1.1h-8.9C340.5,113.1,340.3,113.1,340.1,113z"/>
			<path d="M340.2,122.5c0.3,0.9,1.1,1.6,2.1,1.6h7.3v-1.5h-8.9C340.6,122.6,340.4,122.5,340.2,122.5z"/>
			<path d="M340.8,104.8c-1,0-1.8,0.8-1.8,1.7c0,0.8,0.5,1.4,1.2,1.6c0.2,0.1,0.4,0.1,0.6,0.1h8.9v-3.5H340.8z"/>
			<path d="M340.1,109.8c-0.7,0.3-1.1,0.9-1.1,1.6c0,0.7,0.5,1.4,1.1,1.6c0.2,0.1,0.4,0.1,0.7,0.1h8.9v-3.5h-8.9
				C340.5,109.7,340.3,109.7,340.1,109.8z"/>
			<path d="M340.1,114.3c-0.7,0.3-1.1,0.9-1.1,1.6c0,0.7,0.5,1.4,1.1,1.6c0.2,0.1,0.4,0.1,0.7,0.1h8.9v-3.5h-8.9
				C340.5,114.2,340.3,114.2,340.1,114.3z"/>
			<path d="M340.1,119.2c-0.7,0.3-1.1,0.9-1.1,1.6c0,0.8,0.5,1.4,1.3,1.7c0.2,0,0.3,0.1,0.5,0.1h8.9v-3.5h-8.9
				C340.5,119.1,340.3,119.1,340.1,119.2z"/>
		</g>
	</g>
	<g>
		<g>
			<g>
				<path class="st5" d="M354.6,50.6c1.9,0,1.9-3,0-3C352.6,47.6,352.6,50.6,354.6,50.6L354.6,50.6z"/>
			</g>
		</g>
		<g>
			<g>
				<path class="st5" d="M359.7,52.1c3.4,1.3,4.8,5.1,5.9,8.3c0.6,1.8,3.5,1,2.9-0.8c-1.6-4.3-3.4-8.6-8-10.4
					C358.7,48.5,357.9,51.4,359.7,52.1L359.7,52.1z"/>
			</g>
		</g>
	</g>
</g>
<g id="Layer_8">
</g>
<g id="Layer_1">
	<rect x="177" y="55.8" class="st6" width="154.6" height="218.6"/>
</g>
<g id="Layer_3">
	<g>
		<linearGradient id="SVGID_1_" gradientUnits="userSpaceOnUse" x1="193.0602" y1="86.7404" x2="302.2593" y2="86.7404">
			<stop  offset="0" style="stop-color:#707070"/>
			<stop  offset="0.6185" style="stop-color:#B9B2A7"/>
			<stop  offset="1" style="stop-color:#D0B6A4"/>
		</linearGradient>
		<rect x="193.1" y="79.9" class="st7" width="109.2" height="13.7"/>
		<linearGradient id="SVGID_2_" gradientUnits="userSpaceOnUse" x1="192.8421" y1="103.2131" x2="281.1082" y2="103.2131">
			<stop  offset="0" style="stop-color:#707070"/>
			<stop  offset="0.6185" style="stop-color:#B9B2A7"/>
			<stop  offset="1" style="stop-color:#D0B6A4"/>
		</linearGradient>
		<rect x="192.8" y="97.5" class="st8" width="88.3" height="11.4"/>
	</g>
	<g>
		<linearGradient id="SVGID_3_" gradientUnits="userSpaceOnUse" x1="192.8421" y1="233.1058" x2="274.7168" y2="233.1058">
			<stop  offset="0" style="stop-color:#707070"/>
			<stop  offset="0.6185" style="stop-color:#B9B2A7"/>
			<stop  offset="1" style="stop-color:#D0B6A4"/>
		</linearGradient>
		<rect x="192.8" y="230.5" class="st9" width="81.9" height="5.2"/>
		<g>
			<linearGradient id="SVGID_4_" gradientUnits="userSpaceOnUse" x1="192.8421" y1="218.4946" x2="269.192" y2="218.4946">
				<stop  offset="0" style="stop-color:#707070"/>
				<stop  offset="0.6185" style="stop-color:#B9B2A7"/>
				<stop  offset="1" style="stop-color:#D0B6A4"/>
			</linearGradient>
			<rect x="192.8" y="215.9" class="st10" width="76.3" height="5.2"/>
			<linearGradient id="SVGID_5_" gradientUnits="userSpaceOnUse" x1="192.8421" y1="225.8002" x2="264.0007" y2="225.8002">
				<stop  offset="0" style="stop-color:#707070"/>
				<stop  offset="0.6185" style="stop-color:#B9B2A7"/>
				<stop  offset="1" style="stop-color:#D0B6A4"/>
			</linearGradient>
			<rect x="192.8" y="223.2" class="st11" width="71.2" height="5.2"/>
			<linearGradient id="SVGID_6_" gradientUnits="userSpaceOnUse" x1="192.8421" y1="240.4114" x2="254.1844" y2="240.4114">
				<stop  offset="0" style="stop-color:#707070"/>
				<stop  offset="0.6185" style="stop-color:#B9B2A7"/>
				<stop  offset="1" style="stop-color:#D0B6A4"/>
			</linearGradient>
			<rect x="192.8" y="237.8" class="st12" width="61.3" height="5.2"/>
		</g>
		<linearGradient id="SVGID_7_" gradientUnits="userSpaceOnUse" x1="192.8421" y1="247.717" x2="264.0007" y2="247.717">
			<stop  offset="0" style="stop-color:#707070"/>
			<stop  offset="0.6185" style="stop-color:#B9B2A7"/>
			<stop  offset="1" style="stop-color:#D0B6A4"/>
		</linearGradient>
		<rect x="192.8" y="245.1" class="st13" width="71.2" height="5.2"/>
	</g>
</g>
<g id="Layer_4">
	<g>
		<linearGradient id="SVGID_8_" gradientUnits="userSpaceOnUse" x1="276.88" y1="176.9739" x2="311.0575" y2="176.9739">
			<stop  offset="0" style="stop-color:#707070"/>
			<stop  offset="0.6185" style="stop-color:#B9B2A7"/>
			<stop  offset="1" style="stop-color:#D0B6A4"/>
		</linearGradient>
		<path class="st14" d="M301.7,159.9c-2.3,10.6-11.7,18.5-22.9,18.5c-0.6,0-1.3,0-1.9-0.1v15.7h34.2v-34.2H301.7z"/>
		<linearGradient id="SVGID_9_" gradientUnits="userSpaceOnUse" x1="255.3308" y1="154.927" x2="302.2426" y2="154.927">
			<stop  offset="0" style="stop-color:#707070"/>
			<stop  offset="0.6185" style="stop-color:#B9B2A7"/>
			<stop  offset="1" style="stop-color:#D0B6A4"/>
		</linearGradient>
		<path class="st15" d="M301.7,159.9c0.3-1.6,0.5-3.2,0.5-4.9c0-2.6-0.4-5.2-1.3-7.6h-16.4l7-12.1c-3.7-2.4-8.1-3.8-12.8-3.8
			c-4.3,0-8.3,1.1-11.7,3.1l11.7,20.3h-23.5c0,12.3,9.5,22.4,21.5,23.4v-18.5H301.7z"/>
		<linearGradient id="SVGID_10_" gradientUnits="userSpaceOnUse" x1="238.3761" y1="137.4705" x2="267.0602" y2="137.4705">
			<stop  offset="0" style="stop-color:#707070"/>
			<stop  offset="0.6185" style="stop-color:#B9B2A7"/>
			<stop  offset="1" style="stop-color:#D0B6A4"/>
		</linearGradient>
		<path class="st16" d="M267.1,134.7l-8.5-14.7l-20.2,35h17C255.3,146.3,260.1,138.7,267.1,134.7z"/>
		<linearGradient id="SVGID_11_" gradientUnits="userSpaceOnUse" x1="291.5437" y1="138.6505" x2="304.7572" y2="138.6505">
			<stop  offset="0" style="stop-color:#707070"/>
			<stop  offset="0.6185" style="stop-color:#B9B2A7"/>
			<stop  offset="1" style="stop-color:#D0B6A4"/>
		</linearGradient>
		<path class="st17" d="M301,147.4h3.8l-10.1-17.5l-3.1,5.4C295.9,138.1,299.3,142.4,301,147.4z"/>
	</g>
</g>
<g id="Layer_5">
	<path class="st18" d="M205.9,218.4l-10.6-19.2c2.9-7.6,3-16.3-0.4-24.5c-7-17-26.5-25-43.5-18c-17,7-25,26.5-18,43.5
		c7,17,26.5,25,43.5,18c2.4-1,4.6-2.2,6.7-3.7L205.9,218.4z"/>
	<g>
		<rect x="141.3" y="185.9" class="st19" width="47.4" height="2.5"/>
		<rect x="141.3" y="195.2" class="st19" width="44.2" height="2.5"/>
		<rect x="141.3" y="190.6" class="st19" width="41.2" height="2.5"/>
		<rect x="141.3" y="181.6" class="st19" width="35.5" height="2.5"/>
		<rect x="141.3" y="176.8" class="st19" width="41.2" height="2.5"/>
	</g>
</g>
</svg>
